Coordinates
version=1
nRows=21
nColumns=28
inDegrees=yes

Units are S.I. units (second, meters, Newtons, ...)
Angles are in degrees.

endheader
time	pelvis_tilt	pelvis_list	pelvis_rotation	pelvis_tx	pelvis_ty	pelvis_tz	hip_flexion_r	hip_adduction_r	hip_rotation_r	knee_angle_r	ankle_angle_r	subtalar_angle_r	mtp_angle_r	hip_flexion_l	hip_adduction_l	hip_rotation_l	knee_angle_l	socket_flexion	socket_adduction	socket_rotation	socket_tx	socket_ty	socket_tz	foot_flex	lumbar_extension	lumbar_bending	lumbar_rotation
      0.93750000	      6.15986354	     -1.29711154	     -2.81331341	      0.42481276	      1.04116673	      0.29674653	     -2.01306239	      3.83470968	     -6.03928741	    -16.46965454	     11.57911328	     -1.26823449	     10.83719431	     18.36278586	      1.30928067	     -0.30996168	    -67.71119523	      0.00000000	      0.00000000	      0.00000000	      0.00000000	      0.09622519	      0.00000000	      0.50231376	    -13.21407166	      1.49080680	      4.90502329
      0.94166667	      6.14840184	     -1.11917916	     -2.99998124	      0.42934265	      1.04203036	      0.29725727	     -2.46021368	      3.63789049	     -5.96876352	    -16.09661891	     11.54052481	     -1.10906181	     10.86811717	     18.93151070	      1.52418525	     -0.29533321	    -67.37344966	      0.00000000	      0.00000000	      0.00000000	      0.00000000	      0.09607099	      0.00000000	      0.58257016	    -13.24739190	      1.24671240	      4.96279338
      0.94583333	      6.13565952	     -0.86925985	     -3.21280413	      0.43398267	      1.04290562	      0.29779160	     -2.90895294	      3.35443465	     -5.88762619	    -15.71455840	     11.41570634	     -0.91365150	     10.91210669	     19.43388336	      1.82912973	     -0.29162902	    -66.91478843	      0.00000000	      0.00000000	      0.00000000	      0.00000000	      0.09569956	      0.00000000	      0.61973785	    -13.24122497	      0.89819074	      5.11359010
      0.95000000	      6.12602253	     -0.82943026	     -3.46667668	      0.43836666	      1.04361901	      0.29818679	     -3.23134888	      3.25245996	     -5.93637682	    -15.57465196	     11.42144010	     -0.86739217	     10.92385840	     19.90486519	      1.90469398	     -0.25436969	    -66.43624402	      0.00000000	      0.00000000	      0.00000000	      0.00000000	      0.09489172	      0.00000000	      0.66100505	    -13.32631737	      0.87757233	      5.15826988
      0.95416667	      6.10781825	     -0.63004645	     -3.63873413	      0.44288133	      1.04436313	      0.29869585	     -3.67553502	      3.03918933	     -5.84572269	    -15.18629880	     11.38311161	     -0.70424313	     10.93794904	     20.45518867	      2.12902891	     -0.24802129	    -66.00410013	      0.00000000	      0.00000000	      0.00000000	      0.00000000	      0.09472147	      0.00000000	      0.76716827	    -13.34407108	      0.59474582	      5.25770655
      0.95833333	      6.11470090	     -0.21193931	     -3.90136860	      0.44765300	      1.04521663	      0.29946662	     -4.17052868	      2.57885127	     -5.67150724	    -14.72681516	     11.12313056	     -0.38092684	     11.03598944	     20.81843615	      2.60116731	     -0.28725263	    -65.31028851	      0.00000000	      0.00000000	      0.00000000	      0.00000000	      0.09403220	      0.00000000	      0.77064041	    -13.29216061	     -0.05718035	      5.69751666
      0.96250000	      6.12020699	     -0.04371745	     -4.12809324	      0.45217504	      1.04589026	      0.30001003	     -4.59814496	      2.37265206	     -5.57492605	    -14.40255654	     11.08448481	     -0.18070865	     11.14653238	     21.20872396	      2.80393813	     -0.25045403	    -64.67448298	      0.00000000	      0.00000000	      0.00000000	      0.00000000	      0.09314956	      0.00000000	      0.83229820	    -13.33623168	     -0.32337787	      5.91015852
      0.96666667	      6.09553723	      0.10682162	     -4.33311367	      0.45670587	      1.04647090	      0.30050789	     -5.00062103	      2.18881366	     -5.48418771	    -14.07133672	     11.05594930	     -0.02303081	     11.19766304	     21.61913036	      3.00116686	     -0.16702239	    -64.02100670	      0.00000000	      0.00000000	      0.00000000	      0.00000000	      0.09223711	      0.00000000	      0.92780357	    -13.33002948	     -0.55065078	      6.03545570
      0.97083333	      6.07367368	      0.09724612	     -4.56211077	      0.46082301	      1.04689668	      0.30092041	     -5.24027961	      2.14744162	     -5.52731239	    -14.03720451	     11.05869905	      0.00298751	     11.20586349	     22.03621218	      3.02330136	     -0.04903132	    -63.37394901	      0.00000000	      0.00000000	      0.00000000	      0.00000000	      0.09101842	      0.00000000	      0.95202066	    -13.44393216	     -0.54393221	      6.06718122
      0.97500000	      5.99151008	      0.37611416	     -4.73950257	      0.46577869	      1.04738589	      0.30145776	     -5.72448037	      1.84703906	     -5.32240551	    -13.44385982	     10.98030636	      0.25348441	     11.23965476	     22.36515354	      3.37335721	      0.07786723	    -62.48948751	      0.00000000	      0.00000000	      0.00000000	      0.00000000	      0.08964608	      0.00000000	      1.05353038	    -13.27677717	     -0.94514659	      6.26051843
      0.97916667	      5.95871813	      0.54547952	     -4.97139881	      0.47060408	      1.04781723	      0.30202907	     -6.14553769	      1.63718350	     -5.20945131	    -13.07809802	     10.86383995	      0.43836617	     11.28136952	     22.56580139	      3.58592672	      0.18082087	    -61.51029940	      0.00000000	      0.00000000	      0.00000000	      0.00000000	      0.08764713	      0.00000000	      1.04262723	    -13.21987878	     -1.21993165	      6.48787575
      0.98333333	      5.94164319	      0.64946460	     -5.21968620	      0.47529011	      1.04816837	      0.30260714	     -6.54182299	      1.48841377	     -5.11770603	    -12.78301639	     10.78615638	      0.56994650	     11.34154169	     22.73567259	      3.73577979	      0.33479730	    -60.51045736	      0.00000000	      0.00000000	      0.00000000	      0.00000000	      0.08552451	      0.00000000	      1.06890585	    -13.20770138	     -1.40250035	      6.70464112
      0.98750000	      5.98343083	      0.73249658	     -5.51056789	      0.48009846	      1.04856193	      0.30321725	     -7.05017358	      1.34243363	     -4.98152995	    -12.38987951	     10.68834977	      0.73891501	     11.44004829	     22.76888326	      3.84066107	      0.45000948	    -59.40736684	      0.00000000	      0.00000000	      0.00000000	      0.00000000	      0.08310105	      0.00000000	      1.02315993	    -13.24343791	     -1.60235982	      6.99554605
      0.99166667	      6.36973206	      0.75258744	     -5.91370006	      0.48460530	      1.04935074	      0.30403098	     -7.92975655	      1.22803938	     -4.63914571	    -11.96856246	     10.43269131	      0.88916845	     11.73665718	     22.34017976	      3.86202934	      0.48423481	    -58.14405813	      0.00000000	      0.00000000	      0.00000000	      0.00000000	      0.08014679	      0.00000000	      1.00076705	    -13.72751251	     -1.77902979	      7.57741119
      0.99583333	      6.29871234	      0.79358819	     -6.07613410	      0.48937447	      1.04944684	      0.30449094	     -8.30970235	      1.15686553	     -4.58941735	    -11.62230836	     10.45390252	      0.90000480	     11.83307834	     22.51386334	      3.95922083	      0.76359679	    -57.05501406	      0.00000000	      0.00000000	      0.00000000	      0.00000000	      0.07781190	      0.00000000	      1.00091422	    -13.64749696	     -1.88604187	      7.63759806
      1.00000000	      6.63115133	      0.75585524	     -6.37262320	      0.49398521	      1.05002987	      0.30518421	     -9.20654803	      1.12848429	     -4.24832369	    -11.07755692	     10.15023863	      0.70555603	     12.29530991	     22.11750910	      3.95846227	      0.95137012	    -55.76314333	      0.00000000	      0.00000000	      0.00000000	      0.00000000	      0.07484565	      0.00000000	      0.99616692	    -14.06102423	     -1.99283723	      7.98624278
      1.00416667	      6.49190397	      0.77586645	     -6.51350419	      0.49850859	      1.04992078	      0.30554098	     -9.44476505	      1.08302014	     -4.16972089	    -10.85901252	     10.14597146	      0.76556173	     12.33288812	     22.39991758	      4.04350773	      1.30835939	    -54.69350020	      0.00000000	      0.00000000	      0.00000000	      0.00000000	      0.07273478	      0.00000000	      1.05317512	    -13.95257131	     -2.03902697	      8.01295784
      1.00833333	      6.35301563	      0.77813285	     -6.68195647	      0.50331507	      1.04975297	      0.30602730	     -9.76014062	      1.05642851	     -4.09215051	    -10.50301716	     10.12326244	      0.84753087	     12.37007898	     22.58200358	      4.07642301	      1.63811543	    -53.49513573	      0.00000000	      0.00000000	      0.00000000	      0.00000000	      0.07017963	      0.00000000	      1.00677190	    -13.79231695	     -2.08242146	      8.09127148
      1.01250000	      6.65784539	      0.65915536	     -6.96537844	      0.50793102	      1.05014974	      0.30677989	    -10.70199128	      1.13031135	     -3.58892894	     -9.83500109	      9.75092541	      0.50703860	     12.64956011	     22.17777659	      3.95878684	      1.86188036	    -52.14067882	      0.00000000	      0.00000000	      0.00000000	      0.00000000	      0.06713005	      0.00000000	      0.92809829	    -14.18025064	     -2.11662194	      8.50755147
      1.01666667	      6.50043784	      0.62322056	     -7.09884739	      0.51255837	      1.04982955	      0.30723401	    -10.95920863	      1.14964799	     -3.54758048	     -9.55407496	      9.76503422	      0.54130642	     12.68532145	     22.42117575	      3.94244848	      2.24057837	    -50.98674326	      0.00000000	      0.00000000	      0.00000000	      0.00000000	      0.06483614	      0.00000000	      0.89416391	    -14.03538809	     -2.11730825	      8.53628078
      1.02083333	      6.38392223	      0.59278832	     -7.19665091	      0.51691000	      1.04949107	      0.30756895	    -11.19514805	      1.16555564	     -3.44173732	     -9.40855821	      9.76643539	      0.58012153	     12.70373708	     22.67217955	      3.95999983	      2.66966535	    -49.89030428	      0.00000000	      0.00000000	      0.00000000	      0.00000000	      0.06283948	      0.00000000	      0.99543293	    -13.97561616	     -2.12492349	      8.57148638
